# xmcd
#
# Track frame offsets: 
#        150
#        13363
#        26120
#        38828
#        51527
#        63753
#        74620
#        87033
#        101046
#        113902
#        125977
#        138824
#        150729
#        162765
#        174134
#        185730
#        199086
#        212022
#        225826
#        237405
#
# Disc length: 3318 seconds
#
# Revision: 0
# Processed by: cddbd v1.5.2PL0 Copyright (c) Steve Scherf et al.
# Submitted via: ExactAudioCopyFreeDBPlugin 1.0
#
DISCID=190cf414
DTITLE=Various Artist - The Bullet Records Story- The First Americana Label (
DTITLE=Disc #2)
DYEAR=2011
DGENRE=Country
TTITLE0=Texas Troubadours - That's All She Wrote 
TTITLE1=The Turner Brothers - Guitar Reel 
TTITLE2=Chester Atkins and His All Star Hillbillies - Guitar Blues (Inst
TTITLE2=rumental)
TTITLE3=The York Brothers - Hamatramk Mama
TTITLE4=Johnny Barfield - Doin' The Boogie Woogie
TTITLE5=Bill Nettles - High Falutin' Mama
TTITLE6=Zeke Clements - Brown's Ferry Boogie 
TTITLE7=Smiley Burnette - Swamp Woman Blues 
TTITLE8=Clyde Moody - I Worship You 
TTITLE9=Leon Payne - Lost Highway 
TTITLE10=Leon Payne - They'll Never Take Her Love From Me 
TTITLE11=Autry Inman - Double Cross
TTITLE12=Butterball Paige - I'm Too Old To Boogie Anymore 
TTITLE13=Jimmy Work - Hospitality 
TTITLE14=Ray Price - Jealous Lies 
TTITLE15=Calvin Tubb - Heart Don't Complain 
TTITLE16=Johnnie Lee Wills - Rag Mop  
TTITLE17=Hardrock Gunter - My Bucket's Been Fixed 
TTITLE18=Jimmy Work - Mr. and Mrs. Cloud 
TTITLE19=Ray Batts - Wild Man Boogie 
EXTD=
EXTT0=
EXTT1=
EXTT2=
EXTT3=
EXTT4=
EXTT5=
EXTT6=
EXTT7=
EXTT8=
EXTT9=
EXTT10=
EXTT11=
EXTT12=
EXTT13=
EXTT14=
EXTT15=
EXTT16=
EXTT17=
EXTT18=
EXTT19=
PLAYORDER=
